<?xml version="1.0" encoding="utf-8"?>
<svg version="1.1" id="Слой_1" xmlns="http://www.w3.org/2000/svg" xmlns:xlink="http://www.w3.org/1999/xlink" x="0px" y="0px"
	 viewBox="0 0 552 472" style="enable-background:new 0 0 552 472;" xml:space="preserve">
<style type="text/css">
	.st0{fill-rule:evenodd;clip-rule:evenodd;fill:#1F98E6;}
	.st1{fill:#1F98E6;stroke:#FFFFFF;stroke-miterlimit:10;}
</style>
<path class="st0" d="M174.6,55C157,60.2,142,74.4,136.8,92.1c0.3-13.1-3.3-26.3-10.3-37.4c-11.4,9.1-17.2,24.6-14.5,39
	c2.3,12.2,9.6,26.5,1.2,35.7c-2.1-13.3-9.1-25.8-19.4-34.5c-8.7,13.5-9.8,31.7-2.7,46.2c3,6,7.2,11.4,9.5,17.7
	c2.3,6.3,2.2,14.2-2.7,18.8c-4.5-12.9-14.5-23.8-27-29.4c-4.5,12.2-2.8,26.6,4.5,37.4c4.8,7.1,11.8,12.6,17,19.4
	c5.3,6.8,8.8,16.1,5.3,24c-8.6-10.2-21.2-17-34.5-18.6c-0.5,16,8.4,32,22.3,40.1c5.6,3.3,12,5.3,17.3,9c5.3,3.7,9.7,9.9,8.6,16.4
	c-11.7-6.3-25.4-8.5-38.5-6.3c5.5,15.3,19,27.6,34.8,31.5c6.2,1.5,12.7,1.9,18.7,4.3c5.9,2.4,11.4,7.6,11.3,14
	c-13.2-4.1-28-3.2-40.6,2.5c12.9,19.6,40.2,28.3,62.1,19.7c5.5,4.9,11,9.7,16.4,14.6c-1.6-1.5-8.5-0.7-10.7-0.6
	c-4,0.1-7.9,0.6-11.8,1.5c-7.3,1.6-15.7,4.4-21.4,9.3c2.4,4.4,10.9,8.4,15.3,10.7c5.8,3.2,12.1,5.6,18.6,6.7
	c12.7,2.2,27-1.1,35.4-11c6,3.6,12.1,7.2,18.1,10.8c-12.7,2.8-24.4,10.1-32.4,20.4c13,8.8,30.9,9.7,44.7,2.3c9.7-5.2,21-14.3,30-7.9
	c-8.5,2.9-16.7,6.8-24.2,11.8c-1.8,1.2-3.6,2.5-4.2,4.6s1,4.7,3.1,4.3c19.5-16.5,49.7-18.8,71.4-5.3c4.1,2.5,10.7,4.9,12.5,0.4
	c-8.9-7-19.3-12.2-30.2-15.3c3.6-3.5,9.5-3.4,14.2-1.6c4.7,1.8,8.6,5.1,13,7.7c14.5,8.6,33.8,8.4,48.1-0.6
	c-8.2-10.7-20.4-18.3-33.7-20.7c6.2-3.6,12.4-7.2,18.5-10.8c8.2,10,22.6,13.2,35.3,10.9c12.7-2.3,24.1-9.2,34.7-16.7
	c-12.4-9.3-28.7-13.3-44-10.8c5.6-5.2,11.2-10.4,16.8-15.5c9.7,7,23.1,7.1,34.2,2.7c11.1-4.4,20.3-12.6,28.4-21.3
	c-13.1-6-28.4-7-42.1-2.6c1.2-7.6,8.2-13,15.4-15.6c7.2-2.6,15-3.2,22.2-5.8c13-4.5,23.5-15.5,27.6-28.6
	c-13.1-2.7-27.2-0.1-38.5,7.1c-1.6-6.2,2.5-12.6,7.6-16.4c5.2-3.8,11.4-5.8,17-8.9c14.4-8,23.9-24.1,24.1-40.6
	c-13.8,0.9-27.1,8.2-35.5,19.3c-2.8-9.1-0.2-19.7,6.6-26.5c3.2-3.2,7.3-5.5,10.6-8.7c12.3-11.5,12.6-30.6,12-47.5
	c-13.7,5.6-24.8,17.2-29.8,31.1c-1.6-7.3-3.1-14.5-4.7-21.8c10.2-5.3,15.9-16.9,16.8-28.4c0.9-11.4-2.3-22.8-6.1-33.6
	c-11.1,7.7-18.6,20.5-19.9,33.9c-5.2-2.4-6.6-9.4-5.2-15c1.4-5.6,4.7-10.5,6.2-16c4.4-15.3-5.2-30.8-14.4-43.9
	c-7.8,11.5-11.7,25.6-10.8,39.4c-5.7-22.9-28.4-40.4-52.1-40.2c2.8,16,14.5,30.2,29.7,36c6.8,2.6,14.6,4,19.2,9.6
	c-13.9-4.4-29.6-2.6-42.1,4.9c13,16,36.4,22.6,55.9,15.9c2.6,5.5,5.2,11,7.8,16.5c-12.7-8-28.8-10.4-43.3-6.3
	c8.3,19.7,30.7,32.4,51.9,29.4c1.4,6.8,2.7,13.6,4.1,20.3c-10-10.7-24.3-17-38.9-17.3c2.4,21,19.8,39.5,40.6,43.2
	c0.7,8.4,0,16.9-2.1,25.1c-6.2-13.1-18.1-23.4-32-27.6c-3.6,20.7,7.5,43.2,26.3,52.7c-1.8,7.5-4.8,14.7-8.8,21.3
	c-1.4-15.2-9.8-29.6-22.2-38.4c-9.9,19.5-5.5,45.1,10.3,60.2c-3.8,6.9-8.5,13.2-14,18.8c2.2-15.6-2.8-32-13.2-43.9
	c-14.6,16.8-16.7,43.4-4.8,62.2c-5.1,6.6-11.5,12.2-18.6,16.4c5.1-15.8,3.2-33.8-5.3-48c-18.1,14.7-25.4,41.3-17.3,63.1
	c-6.8,4.9-14.3,8.7-22.3,11.2c9.4-12.9,12.9-29.8,9.5-45.4c-18.7,6.8-32.3,25.6-32.9,45.5c-0.1,2.9,0,6.1-1.6,8.5
	c-1.6,2.4-4.5,3.5-7.3,4.3c-10.8,3-22.5,2.9-33.3-0.4c-2.1-0.6-4.3-1.5-5.6-3.3c-1.3-1.9-1.3-4.5-1.3-6.8
	c-0.4-20.3-13.5-39.7-32.1-47.8c-4.1,15.4-0.8,32.6,8.6,45.5c-5.2-2.2-10.5-4.4-15.7-6.7c-1.8-0.7-3.7-1.6-4.6-3.2
	c-1.4-2.2-0.6-5.1,0-7.6c5-20.6-2.6-43.7-18.8-57.4c-8.9,14.3-11,32.7-5.6,48.7c-4.5-3.4-9-6.8-13.4-10.2c-1.6-1.2-3.2-2.5-3.8-4.3
	c-0.9-2.6,0.5-5.4,1.7-8c8.6-18.2,5.5-41.4-7.8-56.6c-10.5,11.9-15.4,28.4-13.2,44c-4.8-6.2-9.6-12.5-14.4-18.7
	c15.6-14.9,20-40.2,10.3-59.5c-12,8.7-20.2,22.4-22.2,37.1c-3.9-6.3-6.7-13.3-8.3-20.6c18.2-10.4,29.1-32.2,26.6-52.9
	c-14,4-26,14.1-32.4,27.2c-2-8-2.8-16.4-2.3-24.7c20.7-4.2,37.8-22.2,41-43c-14.2,0.1-28.4,6.1-38.3,16.3c0-6.2,1.1-12.5,3.3-18.3
	c21.3,1.2,42.7-11.4,52.2-30.5c-14.7-4-30.9-1.7-43.9,6.3c2.6-5.5,5.2-11,7.9-16.5c19.4,6.3,42.3,0,55.9-15.3
	c-12.4-7.5-27.8-9.9-41.9-6.5c10.8-4.4,21.7-8.8,31-15.9c9.2-7.1,16.8-17.2,18.1-28.8C184,52.9,179.2,53.6,174.6,55z M172.7,63.6
	c0,0.3-1.1,1.3-2.5,2.1c-1.4,0.8-4.8,3.1-7.6,5.1c-6.2,4.5-14,9.4-14,8.9c0-1,5.8-5.7,12.4-10C171.9,62.7,172.7,62.3,172.7,63.6z
	 M384.4,65.9c2.8,1.6,8.1,5.1,11.7,7.9c9.1,7.1,9.5,7.5,5.1,5.1c-3.9-2.2-22.9-15-22.9-15.6C378.2,62.6,379.5,63.2,384.4,65.9z
	 M127,91.7c-0.5,5.8-0.9,11-0.9,11.6c0,0.7-0.3,0.6-0.7-0.4c-0.7-1.6-0.3-20.5,0.6-26.8l0.5-3.5l0.7,4.3
	C127.6,79.6,127.6,85.2,127,91.7z M426.3,91.7c0,8.7-0.2,12.5-0.8,12c-1-1-2-25.6-1.1-28.7l0.6-2.3l0.6,3.1
	C425.9,77.5,426.2,84.7,426.3,91.7z M162.7,105c-3.6,0.9-23.8,3.8-26.8,3.8c-3.8,0-0.8-1.2,5.8-2.3c9-1.5,13.9-2.1,19-2.1
	C165,104.3,165.1,104.3,162.7,105z M408,106.2c7.5,1.2,11.4,2.6,7.4,2.6c-3.7,0-21.3-2.5-25.2-3.6l-3.9-1.1l6.9,0.4
	C397.1,104.7,403.7,105.5,408,106.2z M451.4,121.3c-1.1,4.9-2.4,10.2-2.8,11.9c-1.6,7.1-2.8,10.7-3.3,9.8
	c-1.3-2.1,6.4-32.3,7.8-30.9C453.4,112.3,452.6,116.4,451.4,121.3z M101.5,120.2c2,6.6,4.5,18.8,4.5,21.6c0,3.3-1.5-0.9-3.8-11
	c-1.4-6-2.8-12.1-3.2-13.7c-0.9-3.4-0.9-3.8-0.1-3.8C99.2,113.4,100.4,116.5,101.5,120.2z M274,127.9c-2.9,0.7-5.7,2-8.6,3.5
	c-16.7,8.5-35,13.8-53.6,15.6c-2.9,0.3-6.2,0.6-8.2,2.7c-1.8,1.9-2.2,4.7-2.4,7.3c-3.3,39.3,7.2,79.6,29,112.4
	c10.2,15.3,24.3,27.9,40.1,37.3c2.1,1.3,4.4,2.5,6.9,2.6c2.6,0.1,5-1.1,7.2-2.3c26.4-14.1,46.3-38.7,57.7-66.4
	c11.4-27.7,14.8-58.4,12.8-88.2c0-0.7-0.1-1.5-0.5-2.1c-1.8-3-8.1-2.6-11.1-2.9c-5.6-0.5-11-1.8-16.4-3.2c-8.7-2.2-17.3-5-25.7-8.4
	c-6.1-2.5-11.6-6.2-18-7.9C279.7,127,276.8,127.2,274,127.9z M144.8,135.6c-0.6,0.2-1.9,0.7-2.7,1.1c-9.5,4.3-25.2,10.2-26.3,9.8
	c-1.5-0.5,12.2-6.4,25.1-10.9c0.6-0.2,2-0.4,3.1-0.4S145.5,135.4,144.8,135.6z M415.7,137.5c8.7,2.9,22.4,9.5,18.5,8.9
	c-1.4-0.2-4.6-1.3-7-2.3c-2.4-1-8.2-3.5-12.9-5.4C404.5,134.7,405.2,134,415.7,137.5z M287.5,161.9c4.9,1.7,9.9,4.3,8.2,4.3
	c-0.4,0,0,0.8,0.8,1.7c2.4,2.7,3.3,5.5,2.9,8.8c-0.2,1.7,0,3.5,0.4,4.1c0.7,1,0.9,1,2.2-0.1c0.8-0.7,2.1-1.5,3-1.7
	c1.9-0.6,3.8-4.3,2.7-5.4c-2.3-2.3,1-2.7,4.9-0.7c3.3,1.7,4.5,3.3,4.2,5.9c-0.2,1.6,0,1.9,0.7,1.3c0.7-0.6,1.2-0.2,1.7,1.4
	c0.4,1.2,2.3,6,4.1,10.6c2.9,7.6,3.2,8.8,2.4,11.2c-1.1,3.4-5.4,8.2-10.5,11.6c-6.6,4.5-6.7,4.6-5.3,6.8c0.9,1.4,1.8,1.8,3.1,1.6
	c1-0.2,2-0.1,2.2,0.3c1,1.5-3,8-8.6,13.8c-6.2,6.5-10.8,9.3-20.5,12.6c-4.4,1.5-10.1,2-10.1,0.8c0-1,2.4-2.9,5.9-4.7
	c1.8-0.9,3.8-2.3,4.5-3.1c0.7-0.8,2.4-1.9,3.6-2.4c1.4-0.6,2.9-2.2,3.8-3.9c0.8-1.6,1.9-3,2.3-3c1.6,0,0.7-2.9-1.2-3.8
	c-1.1-0.5-1.8-1.3-1.5-1.7c0.7-1.2-1.2-0.9-4.8,0.8c-3.7,1.7-3.7,1.6-2.4,5.2c0.5,1.4,0.7,2.8,0.5,3c-0.3,0.3-3.9-0.6-8-1.9
	c-4.1-1.3-7.7-2.2-7.9-2c-0.2,0.2,0.8,1.4,2.2,2.7l2.6,2.4l-0.9,4.5c-0.5,2.5-0.9,5.5-0.9,6.6c0,2-0.2,2.1-4.1,2.1
	c-13.9,0-30-10.9-36.9-25c-5.8-11.7-6.6-23.2-2.6-35.4c3-9.1,10.6-19.8,13.8-19.4c0.9,0.1,2.6-0.1,3.8-0.4c3.4-1,4.4,0.5,4.4,6.6
	c0,4.2-0.4,5.9-1.9,8.6c-1.1,1.9-1.9,4.5-1.9,5.8c0,2.8,2,8,3.1,8c0.4,0,0.8,0.6,0.8,1.4c0,0.7,0.5,2,1.2,2.9
	c0.6,0.8,1.1,2.3,1.1,3.2c0,1.9,3.1,4.7,6,5.5c1,0.3,2.1,1.2,2.5,2c0.5,1.3,1.3,0.4,5.2-5.9c3.2-5.2,5-7.4,5.8-7.2
	c0.8,0.2,2-0.9,3.3-3.1c1.1-1.9,2.9-3.7,3.9-4.1c1-0.4,2.1-1.1,2.4-1.5c0.3-0.5,1.4-0.8,2.5-0.8c1.8,0,1.9-0.2,1.5-2.3
	c-0.4-2.2-0.4-2.3,2.2-2.2c3.3,0.1,4.1-0.5,2.9-2.5c-0.5-0.8-0.9-2-0.9-2.7c0-0.7-0.9-1.5-1.9-1.9c-1.1-0.4-1.9-1.4-1.9-2.2
	c0-0.8-0.6-1.7-1.3-2c-1.4-0.5-2.6,0.7-2.6,2.7c0,1.5-4.2,6.3-4.9,5.6c-0.3-0.3-0.5-1.1-0.5-1.7c0-0.7-1-2.2-2.3-3.4
	c-1.3-1.2-2.3-2.8-2.3-3.5c0-1.8,4.3-4.2,6.7-3.8c1.5,0.3,1.9,0,1.9-1.3c0-1.9-2.3-5.4-2.3-3.6c0,1.5-8.3,0.4-11-1.5
	c-1.2-0.9-3.4-1.5-5.2-1.5c-3.8,0-5.6-0.6-5.6-2c0-1.3,2.2-2,8.5-2.7C273.8,159.1,281.3,159.8,287.5,161.9z M83.5,168.3
	c3.8,5.7,12.1,21.8,11.4,22.4c-0.6,0.6-0.5,0.8-3.7-5.2c-4.8-8.7-7-12.6-9.2-16.5c-2.1-3.5-2.7-5.2-1.9-5.2
	C80.3,163.8,81.8,165.9,83.5,168.3z M468.7,170.2c-1.9,3.5-4.3,8-5.4,9.9c-3.2,5.9-6.4,10.9-7,10.9c-0.8,0,2.8-7.9,7-15.3
	c3.4-6,7.5-11.8,8.4-11.8C472,163.8,470.6,166.7,468.7,170.2z M285.4,166.8c-0.5,0.3-1.1,1.4-1.4,2.5c-0.5,1.8-0.4,1.8,0.6,0.6
	c1.6-1.9,3.2-1.7,4.3,0.7c0.7,1.6,0.7,2.2,0,2.6c-1,0.6-0.4,3.1,0.8,3.1c1.4,0,2.4-2.9,1.7-4.9C290.6,169.1,286.6,166,285.4,166.8z
	 M130.1,173.4c-2.3,2.1-21.3,16.6-23,17.4c-4.5,2.4-2.2-0.1,6.6-7.1c6.5-5.2,15.6-11.4,16.7-11.4
	C130.8,172.4,130.7,172.8,130.1,173.4z M424.4,173.8c1.3,0.8,5.6,3.9,9.7,7c10.8,8.3,16.1,13.3,11.5,10.8
	c-2.1-1.1-23.7-17.7-24.3-18.6C420.5,171.9,421.9,172.3,424.4,173.8z M126.5,218.3c-0.4,0.6-4.1,6-8.3,12.1c-7,10-9.8,13.2-8.5,9.6
	c1.1-3.1,10.7-16.9,14.8-21.3C126.5,216.5,127.7,216.3,126.5,218.3z M429.4,221.7c5.1,6.5,13.5,19.6,12.9,20.1
	c-0.4,0.4-6.1-7-13-17.1c-5.6-8.1-5.6-8.2-4.7-8.2C425.1,216.6,427.2,218.9,429.4,221.7z M85.1,229.1c6.4,5.5,15.2,15.1,14.5,15.9
	c-0.3,0.3-5.6-4.7-11.9-11C75.9,222.3,74.9,220.4,85.1,229.1z M464.3,233.8c-5.8,5.5-11.1,10.4-11.9,10.8c-2.8,1.5,0-1.9,7.4-9.1
	c8.7-8.5,13.9-12.9,14.5-12.2C474.6,223.5,470.1,228.2,464.3,233.8z M136,259.3c-0.6,1.9-2.7,8.4-4.7,14.6
	c-5.1,16.1-6.9,18.5-3.1,4.2c2.5-9.4,4.7-15.9,6.7-19.8C136.8,254.3,137.4,254.9,136,259.3z M418.9,263.8c2.7,7.5,5.9,19.5,5.8,21.9
	c0,1.1-0.2,1.3-0.4,0.7c-0.2-0.6-0.7-1.9-1.1-2.7c-0.9-2.1-7.5-23.5-8.1-26.4c-0.5-2.2-0.4-2.2,0.6-0.8
	C416.3,257.3,417.7,260.6,418.9,263.8z M94.6,277.9c5.3,1.8,18.8,8.6,20.8,10.4c0.7,0.6,1.6,1.1,2.1,1.1c0.5,0,1.1,0.3,1.3,0.8
	c0.8,1.3-4.9-1.1-18.2-7.6C87.6,276.2,86,275,94.6,277.9z M461.5,277.4c-0.8,0.6-1.8,1.1-2.1,1.2c-0.3,0-5.4,2.4-11.2,5.3
	c-11.2,5.6-16.1,7.6-15.3,6.3c0.3-0.4,1-0.7,1.6-0.7s1.1-0.4,1.1-0.8c0-0.8,20.8-11.2,23.7-11.9
	C462.5,276.1,463.1,276.2,461.5,277.4z M157.2,307.8c-1.2,19.8-2.4,22.5-2,4.5c0.3-12.3,1.4-20.7,2.5-19.5
	C157.9,293,157.7,299.7,157.2,307.8z M396,303c1,9.7,1.1,18.5,0.3,21.4c-0.6,2.2-2.4-15.4-2.5-25.2C393.7,290.5,395,292.7,396,303z
	 M192.8,346c1.3,12,1.4,14,0.5,13.1c-1.7-1.7-4.7-29.5-3.7-34.2C190.2,322.1,190.3,322.7,192.8,346z M130,326.6
	c18,4.5,19,4.9,16.6,5.3c-0.9,0.2-5.1-0.4-9.3-1.3c-21.7-4.6-24.9-5.6-16.2-5.1C124.4,325.7,128.5,326.2,130,326.6z M361.2,342.2
	c-2,13.6-2.5,16.3-3.3,16.3c-0.4,0-0.6-1.4-0.4-3.3c0.2-1.8,1-8.9,1.7-15.7c0.7-6.8,1.5-12.9,1.8-13.6
	C362,323.8,362.1,336.3,361.2,342.2z M431,326.7c-10.2,2.5-24.2,5.4-26.3,5.3c-3.7-0.1,8.9-3.8,22-6.4c0.9-0.2,3.5-0.3,5.8-0.3
	l4.3,0L431,326.7z M230.1,358.8c1.4,3.4,3.9,9,5.5,12.4c1.6,3.4,3.1,7.3,3.4,8.5c1,4.2-4.1-4.6-8.5-14.9c-4.1-9.5-6.3-17.1-4-13.8
	C227,351.9,228.7,355.4,230.1,358.8z M326.3,351c0,1.4-5.3,14.1-8.6,20.7c-4.4,8.9-4.4,8.9-5,8.3c-0.6-0.6,12.2-29.3,13-29.3
	C326,350.7,326.3,350.9,326.3,351z M183.5,366.3c2.7,0.5,4.7,1,4.5,1.2c-0.6,0.6-36.2-0.7-36.2-1.4
	C151.8,364.6,174.2,364.7,183.5,366.3z M396.5,365.3c7,0.9,2.6,1.5-15.9,1.9c-12.4,0.3-17.4,0.2-15.5-0.3
	C371.1,365.2,389,364.3,396.5,365.3z M234.7,390.2c-1.2,0.7-9.4,3.2-15.8,4.9c-1.7,0.4-5.3,1.4-8.1,2.2c-10.4,3-7.9,0.8,3.2-2.9
	C224.5,390.9,238.3,388.1,234.7,390.2z M324.1,390.6c7.3,1.7,13.1,3.4,16.5,4.8c9.7,3.8,9,4.4-1.7,1.5c-3.8-1-10.1-2.8-14.1-3.9
	c-4-1.1-7.8-2.3-8.5-2.7C314.3,389.1,318.3,389.3,324.1,390.6z"/>
<path class="st1" d="M273.6,202.4l-18.1,27.1l32.2,9.3l-0.8-8.3c0,0,45.6-15.2,39-34.4l-7.7-16.6c0,0-5.7,20.1-41.5,28L273.6,202.4z
	"/>
</svg>
