<svg width="573" height="524" viewBox="0 0 573 524" fill="none" xmlns="http://www.w3.org/2000/svg">
    <path
        d="M423.88 241.023V147.187L362.053 107.376V70.3939L251.129 0L187.888 24.8568V125.833L112.524 157.09V342H145.929V179.185L207.082 156.416V342H248.3V29.8416L335.046 83.1928V342H362.794V251.734L425.362 295.789V342H454.524V260.222L423.88 241.023ZM404.685 227.484L361.312 198.316V138.565L404.685 164.836V227.484Z"
        fill="#24201F" />
    <path
        d="M45.817 410.914C45.817 412.922 45.4405 414.805 44.8129 416.688C44.1852 418.571 43.0555 420.328 41.5492 421.96C40.0429 423.592 38.0344 424.847 35.3984 425.851C32.7623 426.856 29.8752 427.358 26.3605 427.358H15.9418V447.191H0V394.219H26.486C30.0008 394.219 33.0134 394.721 35.5239 395.725C38.0344 396.729 40.1684 398.11 41.6747 399.742C43.181 401.374 44.3108 403.131 44.9384 405.014C45.566 406.897 45.817 408.905 45.817 410.914ZM29.4986 410.914C29.4986 408.403 28.7455 406.646 27.2392 405.767C25.7329 404.889 23.0968 404.386 19.2055 404.386H15.9418V417.19H19.3311C21.9671 417.19 23.9755 417.065 25.4818 416.688C26.8626 416.312 27.9924 415.684 28.62 414.805C29.2476 413.927 29.4986 412.671 29.4986 410.914Z"
        fill="#24201F" />
    <path
        d="M119.871 447.191H102.674L98.5315 437.776C97.0252 434.387 95.6444 431.877 94.3892 430.245C93.1339 428.613 92.0042 427.609 90.7489 427.232C89.6192 426.73 88.1129 426.605 86.23 426.605H84.4726V447.316H68.5308V394.219H95.77C100.163 394.219 103.804 395.098 106.565 396.855C109.327 398.612 111.335 400.872 112.59 403.382C113.846 405.893 114.473 408.403 114.473 410.663C114.473 413.299 113.971 415.558 112.967 417.441C111.963 419.324 110.833 420.579 109.703 421.458C108.574 422.337 107.318 423.09 105.812 423.843C107.569 424.847 108.95 425.977 110.08 427.358C111.21 428.739 112.716 431.5 114.599 435.642L119.871 447.191ZM98.1549 410.914C98.1549 408.403 97.4018 406.772 95.77 405.767C94.1381 404.763 91.502 404.261 87.9873 404.261H84.5981V417.065H87.9873C91.8786 417.065 94.5147 416.688 96.021 415.809C97.4018 415.056 98.1549 413.424 98.1549 410.914Z"
        fill="#24201F" />
    <path
        d="M197.709 420.705C197.709 425.601 196.579 430.245 194.319 434.387C192.06 438.53 188.671 441.793 184.152 444.304C179.633 446.815 174.11 447.944 167.708 447.944C161.18 447.944 155.657 446.689 151.013 444.178C146.494 441.668 143.105 438.279 140.845 434.136C138.586 429.994 137.582 425.475 137.582 420.831C137.582 416.061 138.711 411.542 140.845 407.399C142.979 403.257 146.368 399.868 151.013 397.357C155.532 394.847 161.18 393.591 167.708 393.591C172.603 393.591 176.997 394.345 180.763 395.725C184.654 397.232 187.792 399.115 190.177 401.625C192.688 404.136 194.57 407.023 195.826 410.286C197.081 413.55 197.709 417.065 197.709 420.705ZM181.39 420.705C181.39 418.697 181.139 416.939 180.511 415.307C179.884 413.676 179.005 412.295 177.875 411.04C176.746 409.784 175.239 408.906 173.482 408.152C171.725 407.525 169.842 407.148 167.582 407.148C163.314 407.148 159.925 408.404 157.54 410.914C155.155 413.425 153.9 416.688 153.9 420.705C153.9 424.722 155.155 427.986 157.54 430.496C160.051 433.007 163.314 434.262 167.582 434.262C170.469 434.262 172.98 433.634 175.114 432.505C177.122 431.375 178.754 429.743 179.758 427.735C180.888 425.726 181.39 423.341 181.39 420.705Z"
        fill="#24201F" />
    <path
        d="M306.912 432.253C306.912 436.772 305.405 440.412 302.267 443.174C299.129 445.936 294.736 447.316 289.212 447.316H258.584V394.219H284.191C287.455 394.219 290.342 394.595 292.853 395.223C295.363 395.851 297.246 396.729 298.752 397.859C300.259 398.989 301.388 400.244 302.142 401.75C302.895 403.257 303.271 404.889 303.271 406.646C303.271 408.529 302.895 410.412 302.142 412.044C301.388 413.675 300.384 415.056 299.254 416.06C298.125 417.065 296.995 417.818 295.865 418.32C299.506 419.701 302.267 421.584 304.15 423.718C306.033 425.851 306.912 428.739 306.912 432.253ZM288.208 409.533C288.208 407.023 287.33 405.265 285.698 404.386C284.066 403.508 281.43 403.131 277.789 403.131H274.4V415.809H277.789C281.43 415.809 284.066 415.433 285.698 414.554C287.455 413.675 288.208 412.044 288.208 409.533ZM290.844 431.5C290.844 426.981 287.581 424.722 280.928 424.722H274.4V438.279H280.928C287.581 438.279 290.844 436.019 290.844 431.5Z"
        fill="#24201F" />
    <path
        d="M385.115 423.466C385.115 427.985 384.236 431.877 382.604 435.14C380.972 438.404 378.713 440.915 375.826 442.672C372.939 444.429 370.051 445.81 366.788 446.689C363.524 447.567 360.386 447.944 357.122 447.944C352.603 447.944 348.21 447.191 344.068 445.685C339.8 444.178 336.285 441.542 333.398 437.902C330.511 434.262 329.13 429.492 329.13 423.592V394.219H345.072V419.324C345.072 422.839 345.574 425.726 346.578 427.985C347.582 430.245 348.963 431.877 350.846 433.006C352.603 434.011 354.737 434.638 357.248 434.638C359.633 434.638 361.641 434.136 363.524 433.132C365.281 432.128 366.788 430.37 367.792 428.111C368.796 425.851 369.298 422.964 369.298 419.45V394.219H385.24V423.466H385.115Z"
        fill="#24201F" />
    <path d="M427.417 447.191H411.476V394.219H427.417V447.191Z" fill="#24201F" />
    <path d="M494.951 447.191H454.657V394.219H470.599V434.513H494.951V447.191Z" fill="#24201F" />
    <path
        d="M572.524 421.709C572.524 427.107 571.52 431.5 569.511 434.764C567.503 438.027 565.243 440.664 562.482 442.798C558.716 445.81 553.318 447.316 546.54 447.316H518.045V394.219H540.138C543.402 394.219 546.289 394.344 548.674 394.721C551.059 395.098 553.193 395.6 555.076 396.227C556.959 396.855 558.59 397.608 559.846 398.361C561.226 399.114 562.356 399.993 563.36 400.872C565.118 402.378 566.75 404.135 568.13 406.144C569.511 408.152 570.641 410.537 571.394 413.173C572.147 415.684 572.524 418.571 572.524 421.709ZM556.331 420.956C556.331 416.688 555.452 413.299 553.82 410.914C552.189 408.529 550.18 406.897 547.921 406.018C545.661 405.14 543.276 404.763 540.891 404.763H534.113V436.145H540.891C545.034 436.145 548.674 435.14 551.812 433.132C554.699 431.249 556.331 427.232 556.331 420.956Z"
        fill="#24201F" />
    <g opacity="0.5">
        <path
            d="M79.3355 485.099C81.4694 485.099 83.6034 485.35 85.6118 485.852C87.6202 486.355 89.8797 487.108 92.2647 488.363V495.141C90.0052 493.761 87.8713 492.882 85.8629 492.254C83.8544 491.627 81.846 491.376 79.7121 491.376C77.076 491.376 74.5655 491.878 72.4316 493.007C70.2976 494.137 68.6658 495.644 67.4105 497.652C66.1552 499.66 65.6532 501.92 65.6532 504.305C65.6532 506.815 66.2808 509.075 67.4105 511.083C68.5402 513.092 70.2976 514.598 72.4316 515.728C74.5655 516.857 76.9505 517.36 79.7121 517.36C81.7205 517.36 83.7289 517.109 85.6118 516.481C87.4947 515.853 89.8797 514.849 92.7668 513.217V519.996C90.3818 521.251 88.1223 522.13 85.9884 522.757C83.9799 523.259 81.595 523.51 78.8334 523.51C74.8166 523.51 71.3018 522.757 68.1637 521.125C65.0255 519.493 62.6405 517.234 60.7576 514.347C59.0003 511.334 58.1216 508.071 58.1216 504.556C58.1216 500.79 59.0002 497.401 60.8831 494.388C62.766 491.376 65.2765 488.991 68.4147 487.359C71.6784 485.853 75.3187 485.099 79.3355 485.099Z"
            fill="#24201F" />
        <path
            d="M144.609 485.099C148.501 485.099 152.015 485.852 155.154 487.484C158.292 489.116 160.802 491.376 162.56 494.388C164.442 497.401 165.321 500.79 165.321 504.305C165.321 507.82 164.442 511.083 162.56 514.096C160.802 517.109 158.292 519.493 155.154 521.125C152.015 522.757 148.501 523.636 144.484 523.636C140.592 523.636 137.078 522.757 133.814 521.125C130.55 519.493 128.165 517.108 126.408 514.221C124.651 511.209 123.772 507.945 123.772 504.43C123.772 501.041 124.651 497.777 126.408 494.765C128.165 491.752 130.676 489.367 133.814 487.735C136.952 485.852 140.592 485.099 144.609 485.099ZM131.429 504.43C131.429 506.941 132.057 509.2 133.186 511.209C134.316 513.217 135.948 514.724 137.956 515.853C139.965 516.983 142.224 517.485 144.86 517.485C148.752 517.485 151.89 516.23 154.4 513.845C156.911 511.46 158.166 508.322 158.166 504.43C158.166 501.92 157.664 499.66 156.534 497.652C155.405 495.644 153.773 494.137 151.764 493.007C149.756 491.878 147.496 491.376 144.86 491.376C142.224 491.376 139.965 491.878 137.956 493.007C135.948 494.137 134.316 495.644 133.312 497.652C131.931 499.66 131.429 501.92 131.429 504.43Z"
            fill="#24201F" />
        <path
            d="M205.114 485.602L217.415 500.414L229.717 485.602H236.244V523.26H228.964V496.899H228.713L217.792 510.205H216.788L205.867 496.899H205.616V523.26H198.335V485.602H205.114Z"
            fill="#24201F" />
        <path
            d="M285.453 485.602C288.968 485.602 291.855 486.606 293.989 488.614C296.248 490.623 297.253 493.259 297.253 496.522C297.253 499.786 296.123 502.422 293.863 504.431C291.604 506.439 288.717 507.443 285.077 507.443H278.047V523.26H270.767V485.602H285.453ZM283.696 501.669C285.579 501.669 287.085 501.167 288.215 500.288C289.344 499.41 289.847 498.029 289.847 496.397C289.847 492.882 287.587 491.25 283.194 491.25H278.298V501.669H283.696Z"
            fill="#24201F" />
        <path
            d="M345.209 485.602L361.779 523.26H354.121L350.23 514.096H333.535L329.895 523.26H322.238L337.803 485.602H345.209ZM335.795 508.447H347.971L341.569 493.51L335.795 508.447Z"
            fill="#24201F" />
        <path
            d="M399.049 485.602L421.392 511.837V485.602H428.547V523.26H422.271L399.802 496.522V523.26H392.647V485.602H399.049Z"
            fill="#24201F" />
        <path
            d="M467.97 485.602L477.008 498.155L486.172 485.602H494.833L480.649 504.556V523.134H473.368V504.431L459.058 485.476H467.97V485.602Z"
            fill="#24201F" />
    </g>
</svg>